<svg width="576" height="92" viewBox="0 0 576 92" xmlns="http://www.w3.org/2000/svg">
<g>
<rect x="2" y="2" width="92" height="88" rx="14" fill="#161b22" stroke="#30363d" stroke-width="1.4"/>
<g transform="translate(28.0,10)" fill="none" stroke="#c9a875" stroke-width="1.7" stroke-linecap="round" stroke-linejoin="round">

<path d="M20 6 L32 12 V20 C32 28 26 34 20 37 C14 34 8 28 8 20 V12 Z"/>
<path d="M14 20 L18 24 L27 14"/>

</g>
<text x="48.0" y="66" text-anchor="middle" font-size="10.5" font-family="Segoe UI, Ubuntu, sans-serif" fill="#c9d1d9">ISO 27001</text>

</g>
<g>
<rect x="98" y="2" width="92" height="88" rx="14" fill="#161b22" stroke="#30363d" stroke-width="1.4"/>
<g transform="translate(124.0,10)" fill="none" stroke="#56d4dd" stroke-width="1.7" stroke-linecap="round" stroke-linejoin="round">

<ellipse cx="20" cy="23" rx="8" ry="10"/>
<line x1="20" y1="13" x2="20" y2="9"/>
<line x1="13" y1="17" x2="8" y2="13"/>
<line x1="27" y1="17" x2="32" y2="13"/>
<line x1="13" y1="28" x2="8" y2="32"/>
<line x1="27" y1="28" x2="32" y2="32"/>
<line x1="12" y1="23" x2="8" y2="23"/>
<line x1="28" y1="23" x2="32" y2="23"/>

</g>
<text x="144.0" y="66" text-anchor="middle" font-size="10.5" font-family="Segoe UI, Ubuntu, sans-serif" fill="#c9d1d9">OWASP</text>
<text x="144.0" y="78" text-anchor="middle" font-size="10.5" font-family="Segoe UI, Ubuntu, sans-serif" fill="#c9d1d9">Top 10</text>

</g>
<g>
<rect x="194" y="2" width="92" height="88" rx="14" fill="#161b22" stroke="#30363d" stroke-width="1.4"/>
<g transform="translate(220.0,10)" fill="none" stroke="#ff7b72" stroke-width="1.7" stroke-linecap="round" stroke-linejoin="round">

<path d="M20 6 L36 34 H4 Z"/>
<line x1="20" y1="16" x2="20" y2="24"/>
<circle cx="20" cy="28.5" r="1.3" fill="#ff7b72" stroke="none"/>

</g>
<text x="240.0" y="66" text-anchor="middle" font-size="10.5" font-family="Segoe UI, Ubuntu, sans-serif" fill="#c9d1d9">Risk</text>
<text x="240.0" y="78" text-anchor="middle" font-size="10.5" font-family="Segoe UI, Ubuntu, sans-serif" fill="#c9d1d9">Assessment</text>

</g>
<g>
<rect x="290" y="2" width="92" height="88" rx="14" fill="#161b22" stroke="#30363d" stroke-width="1.4"/>
<g transform="translate(316.0,10)" fill="none" stroke="#d2a8ff" stroke-width="1.7" stroke-linecap="round" stroke-linejoin="round">

<circle cx="17" cy="17" r="10"/>
<line x1="24" y1="24" x2="34" y2="34"/>
<line x1="17" y1="12" x2="17" y2="18"/>
<circle cx="17" cy="21.5" r="1" fill="#d2a8ff" stroke="none"/>

</g>
<text x="336.0" y="66" text-anchor="middle" font-size="10.5" font-family="Segoe UI, Ubuntu, sans-serif" fill="#c9d1d9">Vulnerability</text>
<text x="336.0" y="78" text-anchor="middle" font-size="10.5" font-family="Segoe UI, Ubuntu, sans-serif" fill="#c9d1d9">Assessment</text>

</g>
<g>
<rect x="386" y="2" width="92" height="88" rx="14" fill="#161b22" stroke="#30363d" stroke-width="1.4"/>
<g transform="translate(412.0,10)" fill="none" stroke="#79b8ff" stroke-width="1.7" stroke-linecap="round" stroke-linejoin="round">

<path d="M20 9 C13 9 8 14 8 21 C8 26 10 30 13 33"/>
<path d="M20 12.5 C15 12.5 11.5 16 11.5 21 C11.5 25 13 28 15 30"/>
<path d="M20 16 C17 16 14.5 18.5 14.5 21 C14.5 24 15.5 26 17 28"/>
<path d="M20 9 C27 9 32 14 32 21 C32 26 30 30 27 33"/>
<line x1="20" y1="18" x2="20" y2="25"/>

</g>
<text x="432.0" y="66" text-anchor="middle" font-size="10.5" font-family="Segoe UI, Ubuntu, sans-serif" fill="#c9d1d9">Digital</text>
<text x="432.0" y="78" text-anchor="middle" font-size="10.5" font-family="Segoe UI, Ubuntu, sans-serif" fill="#c9d1d9">Forensics</text>

</g>
<g>
<rect x="482" y="2" width="92" height="88" rx="14" fill="#161b22" stroke="#30363d" stroke-width="1.4"/>
<g transform="translate(508.0,10)" fill="none" stroke="#7ee787" stroke-width="1.7" stroke-linecap="round" stroke-linejoin="round">

<circle cx="20" cy="20" r="9"/>
<circle cx="20" cy="20" r="3"/>
<rect x="18" y="3" width="4" height="6" fill="#7ee787" stroke="none"/>
<rect x="18" y="31" width="4" height="6" fill="#7ee787" stroke="none"/>
<rect x="3" y="18" width="6" height="4" fill="#7ee787" stroke="none"/>
<rect x="31" y="18" width="6" height="4" fill="#7ee787" stroke="none"/>

</g>
<text x="528.0" y="66" text-anchor="middle" font-size="10.5" font-family="Segoe UI, Ubuntu, sans-serif" fill="#c9d1d9">Reverse</text>
<text x="528.0" y="78" text-anchor="middle" font-size="10.5" font-family="Segoe UI, Ubuntu, sans-serif" fill="#c9d1d9">Engineering</text>

</g>

</svg>